/* XPM */
static char *network_wireless_signal_excellent_symbolic[] = {
/* columns rows colors chars-per-pixel */
"32 32 4 1 ",
"  c gray74",
". c gray",
"X c gray75",
"o c None",
/* pixels */
"oooooooooooooooooooooooooooooooo",
"oooooooooooooooooooooooooooooooo",
"oooooooooooooooooooooooooooooooo",
"oooooooooooooooooooooooooooooooo",
"ooooooooooo........ooooooooooooo",
"ooooooo...............oooooooooo",
"oooooo..................oooooooo",
"oooo......................oooooo",
"ooo........oooooooo........ooooo",
"oo......oooooooooooooo......oooo",
"oo.....oooooo....oooooo.....oooo",
"oo...oooo............oooo...oooo",
"ooooooo................ooooooooo",
"oooooo..................oooooooo",
"oooooo......oooooo......oooooooo",
"oooooo....oooooooooo....oooooooo",
"ooooooooooooo....ooooooooooooooo",
"ooooooooooo........ooooooooooooo",
"oooooooooo..........oooooooooooo",
"oooooooooo..........oooooooooooo",
"oooooooooooooooooooooooooooooooo",
"oooooooooooooooooooooooooooooooo",
"oooooooooooooo..oooooooooooooooo",
"ooooooooooooo....ooooooooooooooo",
"oooooooooooo......oooooooooooooo",
"oooooooooooo......oooooooooooooo",
"ooooooooooooo....ooooooooooooooo",
"oooooooooooooo..oooooooooooooooo",
"oooooooooooooooooooooooooooooooo",
"oooooooooooooooooooooooooooooooo",
"oooooooooooooooooooooooooooooooo",
"oooooooooooooooooooooooooooooooo"
};
