/* XPM */
static char *network_wireless_signal_ok_symbolic[] = {
/* columns rows colors chars-per-pixel */
"32 32 4 1 ",
"  c gray74",
". c gray",
"X c gray75",
"o c None",
/* pixels */
"oooooooooooooooooooooooooooooooo",
"oooooooooooooooooooooooooooooooo",
"oooooooooooooooooooooooooooooooo",
"oooooooooooooooooooooooooooooooo",
"oooooooooooooooooooooooooooooooo",
"oooooooooooooooooooooooooooooooo",
"oooooooooooooooooooooooooooooooo",
"oooooooooooooooooooooooooooooooo",
"oooooooooooooooooooooooooooooooo",
"oooooooooooooooooooooooooooooooo",
"oooooooooooooooooooooooooooooooo",
"oooooooooooooooooooooooooooooooo",
"oooooooooooooooooooooooooooooooo",
"oooooooooooooooooooooooooooooooo",
"oooooooooooooooooooooooooooooooo",
"oooooooooooooooooooooooooooooooo",
"oooooooooooooXX  ooooooooooooooo",
"ooooooooooo  X X   ooooooooooooo",
"ooooooooooX X X X X oooooooooooo",
"oooooooooo X X X X Xoooooooooooo",
"oooooooooooooooooooooooooooooooo",
"oooooooooooooooooooooooooooooooo",
"oooooooooooooo Xoooooooooooooooo",
"ooooooooooooo X Xooooooooooooooo",
"ooooooooooooX  X Xoooooooooooooo",
"oooooooooooo XX X oooooooooooooo",
"oooooooooooooX X ooooooooooooooo",
"ooooooooooooooX oooooooooooooooo",
"oooooooooooooooooooooooooooooooo",
"oooooooooooooooooooooooooooooooo",
"oooooooooooooooooooooooooooooooo",
"oooooooooooooooooooooooooooooooo"
};
