/* XPM */
static char *network_wireless_signal_none_symbolic[] = {
/* columns rows colors chars-per-pixel */
"32 32 2 1 ",
"  c gray",
". c None",
/* pixels */
"................................",
"................................",
"................................",
"................................",
"................................",
"................................",
"................................",
"................................",
"................................",
"................................",
"................................",
"................................",
"................................",
"................................",
"................................",
"................................",
"................................",
"................................",
"................................",
"................................",
"................................",
"................................",
"......................   ....   ",
"......................    ..    ",
"......................          ",
".......................        .",
"........................      ..",
"........................      ..",
".......................        .",
"......................          ",
"......................    ..    ",
"......................   ....   "
};
